<svg xmlns="http://www.w3.org/2000/svg" viewBox="0 0 500 500"><path fill="#fccc3c" stroke="#fccc3c" d="m250.01 68.143.011 13.357 68.739 26.981a96212.819 96212.819 0 0 1 95.573 37.559l26.832 10.578-10.224 5.941c-5.624 3.268-10.723 5.791-11.333 5.608-.609-.183-38.008-14.857-83.108-32.61-45.1-17.752-83.01-32.594-84.244-32.982l-2.245-.706-.255 83.575-.256 83.575-108.5-64.01C81.326 169.804 32.132 141 31.682 141c-.818 0 .984 2.638 17.78 26.023l8.961 12.477 94.887 56c52.188 30.8 95.452 56.133 96.142 56.295.69.162 44.175-25.04 96.634-56.006l95.378-56.3 13.74-18.995c7.556-10.447 13.739-19.219 13.74-19.494 0-.381-208.814-82.682-217.194-85.604-1.61-.561-1.749.458-1.74 12.747M91.152 225.056C146.022 301.852 249.269 444.5 249.984 444.5c.978 0 163.03-224.729 162.486-225.331-.479-.53-1.24-.089-83.718 48.576l-78.747 46.464-79.753-47.049c-43.863-25.877-80.641-47.387-81.728-47.799-1.454-.551-.759.954 2.628 5.695" fill-rule="evenodd"/><path fill="#fcfcfc" stroke="#fcfcfc" d="M250 68.301v13.3l5.75 2.12c3.163 1.166 20.15 7.808 37.75 14.759 17.6 6.952 37.625 14.839 44.5 17.527 17.139 6.701 37.195 14.586 72.075 28.335C426.341 150.754 440.49 156 441.518 156c1.028 0 7.654-3.44 14.724-7.644l12.856-7.644-15.799-6.191c-8.69-3.406-29.299-11.51-45.799-18.01C284.769 68.164 251.182 55 250.564 55c-.31 0-.564 5.985-.564 13.301m-.244 117.143-.256 83.575-108.5-64.01C81.326 169.804 32.132 141 31.682 141c-.818 0 .984 2.638 17.78 26.023l8.961 12.477 94.888 56c52.188 30.8 95.277 56.145 95.754 56.322.478.177.996-4.711 1.152-10.864l.283-11.186 84.486-49.843c46.467-27.413 84.609-50.213 84.759-50.665.151-.452-10.192-4.938-22.985-9.968S346.725 139.607 314 126.72c-32.725-12.887-60.51-23.75-61.744-24.141l-2.245-.71-.255 83.575m-160.72 36.623c10.139 14.309 159.379 221.64 160.074 222.383.521.555.89-26.293.89-64.647v-65.596l-79.75-47.048c-87.61-51.686-84.768-50.108-81.214-45.092" fill-rule="evenodd"/><path fill="#fcfcfc" stroke="#fcfcfc" d="M250 68.301v13.3l5.75 2.12c3.163 1.166 20.15 7.808 37.75 14.759 17.6 6.952 37.625 14.839 44.5 17.527 17.139 6.701 37.195 14.586 72.075 28.335C426.341 150.754 440.449 156 441.427 156c.977 0 7.611-3.437 14.741-7.637l12.965-7.637-15.816-6.198a36576.1 36576.1 0 0 1-45.817-18.017C284.769 68.164 251.182 55 250.564 55c-.31 0-.564 5.985-.564 13.301m-.244 117.124-.256 83.556-26-15.3c-14.3-8.415-62.762-36.99-107.692-63.5-44.931-26.51-82.482-48.502-83.447-48.873-1.778-.682-.908.626 17.106 25.736l8.967 12.499 18.033 10.575c18.159 10.649 134.61 79.362 159.318 94.007 7.307 4.331 13.48 7.875 13.718 7.875.237 0 .559-5.002.714-11.116l.283-11.115 84.492-49.861c46.471-27.424 84.613-50.222 84.76-50.664.147-.441-10.199-4.918-22.992-9.948-12.793-5.03-50.035-19.689-82.76-32.576-32.725-12.887-60.51-23.75-61.744-24.141l-2.245-.71-.255 83.556m-157.58 41.059c8.177 11.494 154.501 214.744 156.234 217.016 1.373 1.799 1.53-4.587 1.558-63.648l.032-65.649-43.75-25.805a729141.093 729141.093 0 0 0-80.716-47.602C105.203 228.808 88.182 219 87.71 219c-.472 0 1.538 3.368 4.466 7.484" fill-rule="evenodd"/><path fill="#3c7cb4" stroke="#3c7cb4" d="M250 68.301v13.3l5.75 2.12c3.163 1.166 20.15 7.808 37.75 14.759 17.6 6.952 37.625 14.839 44.5 17.527 17.139 6.701 37.195 14.586 72.075 28.335C426.341 150.754 440.341 156 441.186 156c.845 0 7.457-3.445 14.694-7.656l13.157-7.656-15.769-6.179a37559.849 37559.849 0 0 1-45.768-17.998C284.769 68.164 251.182 55 250.564 55c-.31 0-.564 5.985-.564 13.301m-.244 117.124-.256 83.556-26-15.3c-14.3-8.415-62.762-36.99-107.692-63.5-44.931-26.51-82.482-48.502-83.447-48.873-1.778-.682-.908.626 17.106 25.736l8.967 12.499 18.033 10.575c18.159 10.649 134.61 79.362 159.318 94.007 7.307 4.331 13.48 7.875 13.718 7.875.237 0 .559-5.06.714-11.245l.283-11.245 84.745-50.005c46.61-27.503 84.748-50.245 84.75-50.538.003-.293-10.457-4.647-23.245-9.675-12.788-5.028-50.025-19.685-82.75-32.572-32.725-12.887-60.51-23.75-61.744-24.141l-2.245-.71-.255 83.556m-157.58 41.059c8.177 11.494 154.501 214.744 156.234 217.016 1.373 1.799 1.53-4.587 1.558-63.648l.032-65.649-43.75-25.805a729141.093 729141.093 0 0 0-80.716-47.602C105.203 228.808 88.182 219 87.71 219c-.472 0 1.538 3.368 4.466 7.484" fill-rule="evenodd"/></svg>
