<svg version="1.1" xmlns="http://www.w3.org/2000/svg" viewBox="0 0 4114.741418714821 950.4696698548067" width="4114.741418714821" height="950.4696698548067">
  <!-- svg-source:excalidraw -->

  <defs>
    <style class="style-fonts">
      @font-face {
        font-family: "Virgil";
        src: url("https://excalidraw.com/Virgil.woff2");
      }
      @font-face {
        font-family: "Cascadia";
        src: url("https://excalidraw.com/Cascadia.woff2");
      }
    </style>
  </defs>
  <rect x="0" y="0" width="4114.741418714821" height="950.4696698548067" fill="#ffffff"></rect><g stroke-linecap="round" transform="translate(33.79878462044769 108.29932778010982) rotate(0 650.1502757522669 403.57786795255714)"><path d="M0.97 0.37 C261.84 -3, 526.33 -4.9, 1300.42 -1.33 M0.01 -0.15 C351.15 -8.9, 703.84 -8.01, 1300.81 0.41 M1300.55 1.18 C1302.94 272.45, 1301.09 546.88, 1301.57 808.61 M1299.61 -0.22 C1300.15 249.2, 1301.2 500.49, 1299.64 807.85 M1299.67 807.98 C919.58 800.27, 537.96 800.75, -0.25 806.07 M1301.05 807.79 C911.24 811.24, 521.12 811.54, 0.38 807.95 M-0.88 805.62 C-5.23 550.49, -5.22 292.64, -1.55 -1.57 M-0.63 807.57 C-3.01 586.54, -2.97 365.49, 0.67 0.36" stroke="#000000" stroke-width="1" fill="none"></path></g><g stroke-linecap="round" transform="translate(54.64858940749207 41.72924918496335) rotate(0 20.380480928846055 15.565292053000803)"><path d="M7.01 3.44 C7.01 3.44, 7.01 3.44, 7.01 3.44 M7.01 3.44 C7.01 3.44, 7.01 3.44, 7.01 3.44 M1.21 17.35 C6.38 10.72, 5.53 8.27, 11.48 3.22 M-1.05 16.92 C3 13.89, 8.73 9.79, 14.09 -0.21 M4.71 24.03 C8.13 14.32, 13.06 13.83, 20.82 0.32 M3.46 22.69 C8.37 13.1, 14.92 7.14, 17.91 3.17 M1.41 23.35 C6.23 18.39, 17.53 15.99, 21.31 6.95 M2.32 25.31 C10.27 16.86, 17.15 9, 23.39 1.75 M6.74 27 C15.63 22.46, 23.85 11.91, 26.64 6.58 M6.66 26.23 C10.3 21.41, 15.92 17.23, 27.2 4.83 M11.04 28.08 C18.56 22.82, 26.56 12.83, 36.18 0.54 M12.85 30.36 C17.21 19.22, 25.39 10.06, 33.75 1.94 M18.99 32.82 C24.51 24.6, 30.24 15.78, 37.88 6.12 M15.68 32.01 C19.1 26.55, 25.63 21.9, 35.9 7.02 M16.45 30.09 C23.82 24.77, 26.2 20.65, 37.63 9.43 M17 34.7 C26.94 23.86, 32.06 19.42, 38.04 9.67 M24.59 32.63 C30.53 28.07, 35.29 19.95, 43.57 14.49 M25.52 34.56 C27.17 28.71, 31.32 21.93, 42.11 10.45 M28.4 30.25 C35.41 29.63, 37.55 23.39, 42.79 18.45 M30.83 31.72 C32.38 27.21, 36.22 26.19, 42.18 18.31" stroke="#fa5252" stroke-width="0.5" fill="none"></path><path d="M32.25 3.52 C35.79 4.92, 38.54 6.14, 39.69 9.26 C40.84 12.38, 40.84 18.61, 39.16 22.22 C37.48 25.84, 33.41 29.51, 29.63 30.97 C25.85 32.42, 20.8 32.11, 16.47 30.95 C12.14 29.8, 6.24 26.45, 3.63 24.03 C1.02 21.61, 0.21 19.89, 0.81 16.41 C1.41 12.94, 4.54 5.95, 7.23 3.19 C9.91 0.42, 11.6 -1.65, 16.91 -0.19 C22.22 1.26, 35.99 7.47, 39.08 11.91 C42.17 16.36, 35.62 26.42, 35.45 26.46 M33.66 2.3 C36.86 4.01, 39.83 6.44, 40.59 9.79 C41.35 13.14, 39.83 19.27, 38.23 22.42 C36.62 25.56, 34.73 26.86, 30.97 28.67 C27.21 30.47, 19.82 33.67, 15.67 33.22 C11.53 32.77, 8.3 28.92, 6.1 25.98 C3.91 23.04, 2.89 19.67, 2.49 15.56 C2.1 11.45, 0.6 4.17, 3.72 1.31 C6.84 -1.55, 16.01 -1.9, 21.21 -1.6 C26.41 -1.3, 32.99 2.07, 34.91 3.12 C36.83 4.17, 33.45 4.85, 32.73 4.71" stroke="#000000" stroke-width="1" fill="none"></path></g><g stroke-linecap="round" transform="translate(122.81141274975255 41.72924918496335) rotate(0 20.380480928846055 15.565292053000803)"><path d="M1.95 7 C1.95 7, 1.95 7, 1.95 7 M1.95 7 C1.95 7, 1.95 7, 1.95 7 M0.81 14.65 C3.47 12.2, 3.91 10.37, 12.61 4.56 M0.58 16.2 C3.6 11.77, 5.18 6.96, 9 4.77 M2 17.81 C8.88 13.76, 11.61 8.51, 11.25 5.95 M0.19 17.5 C6.66 13.33, 10.33 6.46, 16.08 4.57 M5.74 20.55 C10.74 12.93, 13.42 9.05, 21.18 4.36 M5.78 21.24 C10.18 14.62, 13.41 9.73, 18.93 2.83 M3.85 31.2 C13.3 26.11, 14.67 15, 24.09 5.05 M4.24 27.84 C8.6 22.16, 15.95 15.7, 24.98 4.03 M11.06 29.78 C19.59 23.19, 28.41 12.56, 33.52 -0.42 M8.3 30.42 C18.38 18.03, 24.97 11.67, 33.29 4.69 M16.33 27.53 C22.91 22.95, 33.24 7.43, 31.32 7.95 M13.5 29.09 C20.15 20.38, 27.4 10.64, 35.55 5.8 M18.04 29.03 C20.83 27.08, 22.92 24.43, 39.56 4.49 M19.11 31.38 C24.72 20.89, 33.54 12.92, 37.79 8.95 M22.97 34.76 C26.91 23.06, 39.75 15.83, 38.9 9.2 M20.94 32.97 C30.02 25.38, 38.05 15.77, 40.41 9.97 M27 34.82 C28.17 29.07, 36.7 23.41, 42.72 13.47 M25.69 33.73 C30.09 27.19, 34.45 26.23, 42.18 14.85" stroke="#fab005" stroke-width="0.5" fill="none"></path><path d="M1.87 7.09 C3.95 4.85, 8.57 3.01, 13.38 2.19 C18.19 1.37, 26.18 0.84, 30.74 2.17 C35.3 3.5, 39.05 6.99, 40.74 10.19 C42.42 13.4, 42.36 18.04, 40.84 21.4 C39.33 24.75, 35.23 28.73, 31.65 30.32 C28.06 31.91, 23.91 31.27, 19.34 30.95 C14.77 30.63, 7.45 30.69, 4.22 28.41 C1 26.13, -3.63 22, -0.01 17.28 C3.61 12.55, 19.1 0.6, 25.96 0.07 C32.81 -0.45, 41.15 13.89, 41.13 14.13 M24.97 -0.54 C28.71 0.16, 33.22 4.76, 35.57 7.39 C37.92 10.02, 39.29 12.13, 39.07 15.24 C38.85 18.36, 37.27 23.29, 34.27 26.07 C31.27 28.84, 25.5 32.05, 21.08 31.89 C16.65 31.74, 11.49 26.98, 7.71 25.15 C3.94 23.32, -1.17 24.18, -1.57 20.89 C-1.96 17.59, 2.84 8.28, 5.31 5.38 C7.78 2.49, 9.95 4.11, 13.26 3.53 C16.56 2.95, 23.06 2.79, 25.14 1.89 C27.22 0.99, 25.25 -2, 25.74 -1.85" stroke="#000000" stroke-width="1" fill="none"></path></g><g stroke-linecap="round" transform="translate(189.71408305543332 41.72924918496335) rotate(0 20.380480928846055 15.565292053000803)"><path d="M4.59 5.31 C4.59 5.31, 4.59 5.31, 4.59 5.31 M4.59 5.31 C4.59 5.31, 4.59 5.31, 4.59 5.31 M0.77 14.04 C4.16 10.64, 7.72 1.97, 12.35 1.24 M2.69 13.45 C4.05 11.53, 9.17 8.5, 12.27 1.99 M5.48 21.84 C10.18 8.93, 15.85 2.26, 24.18 -3.26 M3.28 19.5 C10.77 13.75, 17.69 6.32, 20.37 -0.1 M8.74 19.05 C5.65 20.13, 16.57 12.85, 23.47 0.34 M3.34 21.31 C10.51 18.16, 13.02 12.86, 25.5 0.13 M3.15 30.52 C14.21 16.81, 21.68 12.23, 30.14 2.71 M6.87 26.56 C14.28 19.69, 24.09 8.36, 28.26 2.2 M12.75 29.32 C16.08 19.07, 29.7 13.71, 29.19 2.2 M11.69 29.03 C15.83 20.86, 22.1 15.52, 32.69 3.26 M15.86 30.67 C22.51 20.09, 26.24 15.68, 34.63 3.8 M14.2 32.68 C21.59 22.07, 27.21 16.47, 35.92 7.39 M19.08 32.66 C23.47 30.48, 30.56 18.72, 36.95 7.35 M17.2 34.64 C22.81 29.62, 26.01 23.42, 37.41 8.07 M22.89 35.3 C26.4 30.85, 28.69 19.9, 39.4 12.14 M21.18 34.44 C27.22 25.8, 33.36 18.72, 40.95 10.98 M29.78 32.45 C33.68 25.08, 38.94 26.16, 46.72 11.54 M30.26 32.35 C33.18 25.32, 35.67 22.73, 45.15 14.99" stroke="#40c057" stroke-width="0.5" fill="none"></path><path d="M20.18 -1.77 C24.3 -2.41, 27.33 -0.41, 30.81 1.94 C34.28 4.3, 39.63 9.06, 41.04 12.37 C42.45 15.67, 41.15 18.86, 39.26 21.77 C37.36 24.68, 33.82 28.18, 29.67 29.83 C25.52 31.48, 18.41 32.42, 14.37 31.67 C10.33 30.92, 7.81 28.32, 5.45 25.33 C3.09 22.33, 0.3 17.08, 0.2 13.69 C0.1 10.3, 1.26 7.24, 4.87 4.98 C8.48 2.73, 18.96 1.22, 21.86 0.15 C24.75 -0.91, 22.78 -1.38, 22.25 -1.41 M37.55 4.57 C40.8 7.51, 40.04 13.15, 39.77 16.86 C39.51 20.56, 38.69 25.01, 35.94 26.81 C33.19 28.61, 27.05 26.93, 23.25 27.66 C19.46 28.4, 16.79 31.75, 13.16 31.23 C9.52 30.71, 4 28.25, 1.45 24.56 C-1.09 20.88, -3.31 12.8, -2.11 9.13 C-0.91 5.46, 4.85 4.46, 8.65 2.53 C12.45 0.6, 16.1 -2.97, 20.69 -2.46 C25.28 -1.96, 33.64 4.82, 36.2 5.57 C38.75 6.33, 36.04 1.79, 36 2.06" stroke="#000000" stroke-width="1" fill="none"></path></g><g stroke-linecap="round" transform="translate(10 10) rotate(0 669.3371219866402 462.54268276682166)"><path d="M-1.23 -0.08 C383.53 9.27, 765.96 10.82, 1339.18 0.75 M-0.52 0.13 C276.41 -5.74, 554.04 -5.16, 1338.84 0.22 M1337.13 0.86 C1343.8 339.71, 1345.02 679.94, 1338.1 924.44 M1339.15 0.64 C1341.65 222.85, 1340.72 445.77, 1338.9 924.58 M1337.89 924.2 C1038.85 926.27, 739.29 924.7, 0.1 926.31 M1338.8 925.47 C901.1 930.56, 462.66 930.42, -0.64 925.38 M0.99 925.91 C-7.18 726.73, -5.15 529.51, 1.55 1.33 M-0.55 925.4 C3.17 561.41, 1.97 195.52, 0.51 0.51" stroke="#000000" stroke-width="1" fill="none"></path></g><g stroke-linecap="round" transform="translate(268.08377644764346 28.765563401030022) rotate(0 524.0906265329018 28.528977836934132)"><path d="M14.26 0 M14.26 0 C251.19 3.15, 488.32 1.23, 1033.92 0 M14.26 0 C289.45 6.33, 563.41 6.67, 1033.92 0 M1033.92 0 C1046.01 3.19, 1047.76 6.37, 1048.18 14.26 M1033.92 0 C1041.66 -2.92, 1044.54 1, 1048.18 14.26 M1048.18 14.26 C1047.35 26.82, 1045.58 30.49, 1048.18 42.79 M1048.18 14.26 C1049.25 21.98, 1046.55 30.16, 1048.18 42.79 M1048.18 42.79 C1044.87 52.28, 1039.88 57.28, 1033.92 57.06 M1048.18 42.79 C1047.6 50.04, 1041.08 61.24, 1033.92 57.06 M1033.92 57.06 C724.01 60.6, 414.79 62.61, 14.26 57.06 M1033.92 57.06 C664.38 52.41, 294.73 52.87, 14.26 57.06 M14.26 57.06 C3.65 54.62, -2.71 52.26, 0 42.79 M14.26 57.06 C6.9 57.97, -1.36 51.16, 0 42.79 M0 42.79 C-0.11 34.96, -1.67 26.33, 0 14.26 M0 42.79 C-1.15 33.41, 0.86 20.73, 0 14.26 M0 14.26 C-3.48 7.14, 7.33 2.81, 14.26 0 M0 14.26 C-2.61 5.69, 6.75 0.59, 14.26 0" stroke="#000000" stroke-width="1" fill="none"></path></g><g transform="translate(331.33532886434887 32.86185180505106) rotate(0 170 22)"><text x="0" y="35" font-family="Cascadia, Segoe UI Emoji" font-size="36px" fill="#000000" text-anchor="start" style="white-space: pre;" direction="ltr">my-panel-app.org</text></g><g stroke-linecap="round" transform="translate(55.18812707124755 129.03826866364284) rotate(0 627.2642706040629 379.7014785996515)"><path d="M-0.23 -0.96 C493.05 5.23, 988.98 6.13, 1254.27 -0.84 M1255.46 -0.02 C1249.27 273.76, 1248.25 549.01, 1254.32 759.19 M1255.65 759.02 C786.73 758.51, 321.05 758.51, 0.02 760.69 M-0.96 760.25 C0.84 573.53, 0.19 385.16, 0.23 0.7" stroke="#000000" stroke-width="2.5" fill="none" stroke-dasharray="8 10"></path></g><g transform="translate(92.50333254322516 173.45206331131055) rotate(0 327.99999999999994 22)"><text x="0" y="35" font-family="Cascadia, Segoe UI Emoji" font-size="36px" fill="#000000" text-anchor="start" style="white-space: pre;" direction="ltr">Row(sizing_mode='stretch_both')</text></g><g stroke-linecap="round" transform="translate(1416.5354337715557 108.45732802821567) rotate(0 650.1502757522671 403.57786795255714)"><path d="M-0.01 -1.37 C361.2 4.8, 722.99 4.27, 1298.72 -0.1 M0.53 0.42 C433.47 8.13, 868.15 7.44, 1301 0.25 M1299.34 -0.19 C1301.12 281.88, 1300.5 564.77, 1299.9 806.8 M1300.21 -0.23 C1296.12 295.15, 1296.62 590.36, 1299.61 807.31 M1301.86 807.12 C875.04 800.74, 452.31 800.88, 1.55 807.45 M1300.43 807.94 C1037.6 812.61, 776.04 813.16, 0.18 807.48 M1 806.65 C1.13 597.47, 1.61 386.78, -0.37 1.04 M0.77 807.95 C3.01 591.6, 4.54 376.92, 0.17 -0.38" stroke="#000000" stroke-width="1" fill="none"></path></g><g stroke-linecap="round" transform="translate(1437.3852385586001 41.887249433069314) rotate(0 20.380480928846055 15.565292053000803)"><path d="M2.29 9.94 C2.29 9.94, 2.29 9.94, 2.29 9.94 M2.29 9.94 C2.29 9.94, 2.29 9.94, 2.29 9.94 M6.08 13.06 C8.1 9.07, 9.76 4.97, 11.25 -0.27 M3.27 16.64 C4.27 11.77, 8.09 8.92, 12.85 3.11 M3.75 19.52 C9.72 11.23, 16.42 4.92, 21.32 0.17 M2.44 21.43 C7.17 14.88, 10.96 13.37, 22.19 -1.52 M7.94 25.23 C14.1 16.48, 16.53 11.13, 27.78 0.61 M6.3 25.28 C13.01 16.18, 19.37 7.59, 26.19 0.31 M5.84 30.39 C18.14 15.66, 20.53 9.31, 25.65 1.32 M7.55 27.33 C13.66 23.73, 19.24 16.29, 30.99 1.58 M9.02 26.19 C19.01 22.57, 29.43 9.75, 30.01 8.26 M12.56 29.98 C19.4 20.7, 28.78 10.79, 31.6 4.96 M15.28 33.96 C23.74 26.04, 22.71 22.83, 35.38 8.48 M16.95 32.31 C23.08 23.69, 29.99 13.76, 37.69 8.53 M21.86 28.14 C24.83 21.82, 37.04 15.04, 38.85 10.92 M21.09 30.87 C23.48 25.36, 29.97 22.79, 39.09 12.35 M27.19 30.03 C25.31 28.56, 27.59 23.42, 44.49 17.08 M26.07 35.14 C31.17 28.22, 33.31 23.19, 40.37 14.9 M31.03 29.35 C35.55 28.64, 36.72 24.26, 40.15 21.84 M31.62 32.38 C34.24 29.63, 36.08 27.17, 37.84 22.81" stroke="#fa5252" stroke-width="0.5" fill="none"></path><path d="M22.37 -1.71 C26.66 -1.46, 33.08 3.71, 36.02 6.37 C38.96 9.03, 39.82 10.84, 40.01 14.23 C40.2 17.63, 40.16 23.85, 37.17 26.76 C34.18 29.67, 26.64 31.47, 22.07 31.67 C17.51 31.88, 12.98 29.7, 9.79 27.98 C6.59 26.26, 4.15 24.35, 2.9 21.34 C1.65 18.33, 0.95 13.35, 2.3 9.92 C3.66 6.5, 6.96 2.05, 11.01 0.8 C15.05 -0.44, 23.64 2.13, 26.57 2.46 C29.49 2.78, 28.62 2.87, 28.56 2.75 M17.73 0.04 C21.25 -0.94, 25.37 -2.01, 28.86 -0.48 C32.35 1.05, 36.96 6.23, 38.65 9.24 C40.34 12.26, 40.11 14.24, 38.99 17.61 C37.88 20.97, 35.91 27.55, 31.98 29.44 C28.05 31.32, 19.35 29.47, 15.41 28.91 C11.47 28.35, 11.33 27.9, 8.34 26.06 C5.35 24.23, -1.78 20.92, -2.54 17.91 C-3.3 14.9, 0.22 10.83, 3.78 8 C7.33 5.17, 17.24 1.99, 18.79 0.93 C20.33 -0.13, 13.18 1.4, 13.03 1.64" stroke="#000000" stroke-width="1" fill="none"></path></g><g stroke-linecap="round" transform="translate(1505.5480619008604 41.887249433069314) rotate(0 20.380480928846055 15.565292053000803)"><path d="M-0.17 10.45 C-0.17 10.45, -0.17 10.45, -0.17 10.45 M-0.17 10.45 C-0.17 10.45, -0.17 10.45, -0.17 10.45 M-2 16.74 C1.07 11.74, 4.01 8.91, 7.4 2.83 M1.15 15.29 C2.98 12.33, 6.57 7.26, 10.38 4.73 M-0.43 22.2 C3.91 16.17, 10.27 5.84, 17.95 -0.19 M1.48 20.89 C3.54 16.15, 10.65 11.31, 16.26 3.92 M5.02 25.97 C9.91 14.51, 18.27 10.9, 24.78 0.94 M5.07 24.57 C8.6 18.37, 12.7 11.98, 24.48 0.34 M9.81 30.07 C8.18 19.69, 14.99 10.22, 26.55 -1.31 M6.76 27.23 C12.93 23.28, 15.22 18.31, 26.81 4.05 M6.01 28.18 C17.42 24.37, 19.63 15.03, 34.64 8.46 M9.8 29.46 C18.86 20.32, 27.25 8.32, 31.33 3.25 M16.34 34.88 C21.24 20.72, 30.83 13.3, 36.01 10.36 M14.69 30.55 C20.07 23.67, 24.12 20.83, 36.05 8.81 M13.74 30.37 C21.02 29.02, 27.81 19.71, 37.33 8.6 M16.47 31.42 C24.33 24, 35.07 15.29, 38.76 8.04 M18.85 31.01 C25.91 24.4, 29.22 26.51, 43.13 13.3 M23.95 35.49 C30.04 24.13, 37.95 16.95, 40.96 12.71 M22.81 38.3 C31.28 30.58, 33.05 25.88, 41.31 14.98 M28.32 35.79 C31.39 31.16, 34.9 25.19, 43.06 15.74" stroke="#fab005" stroke-width="0.5" fill="none"></path><path d="M7.67 2.21 C10.92 0.54, 19.57 -1.31, 23.97 -0.59 C28.37 0.13, 31.1 4.17, 34.07 6.52 C37.05 8.86, 41.3 10.38, 41.81 13.46 C42.32 16.54, 40.18 21.81, 37.14 24.99 C34.1 28.17, 27.86 31.67, 23.56 32.55 C19.26 33.43, 15.07 32.04, 11.36 30.28 C7.65 28.51, 3.22 25.26, 1.3 21.96 C-0.63 18.65, -3.09 14.19, -0.17 10.46 C2.74 6.73, 14.46 1.2, 18.81 -0.42 C23.16 -2.03, 26.25 0.48, 25.94 0.76 M32.51 2.4 C35.86 3.79, 37.15 8.47, 38.09 11.73 C39.02 14.99, 40.21 18.82, 38.12 21.96 C36.02 25.09, 29.39 29.54, 25.53 30.54 C21.67 31.55, 19.04 28.62, 14.96 27.99 C10.88 27.37, 3.53 29.65, 1.05 26.8 C-1.42 23.96, -1.09 14.77, 0.12 10.91 C1.32 7.06, 4.71 5, 8.26 3.67 C11.82 2.34, 17.24 3.48, 21.43 2.92 C25.62 2.36, 31.37 -0.05, 33.39 0.31 C35.42 0.67, 33.77 3.87, 33.56 5.05" stroke="#000000" stroke-width="1" fill="none"></path></g><g stroke-linecap="round" transform="translate(1572.450732206541 41.887249433069314) rotate(0 20.380480928846055 15.565292053000803)"><path d="M8.54 2.12 C8.54 2.12, 8.54 2.12, 8.54 2.12 M8.54 2.12 C8.54 2.12, 8.54 2.12, 8.54 2.12 M4.38 12.3 C3.71 10.89, 5.39 6.08, 12.11 3.29 M2.83 12.87 C6.1 10.34, 7.14 8.87, 14.14 3.22 M5.95 15.21 C10.3 11.66, 10.36 12.22, 15.35 0.69 M4.64 16.79 C8.14 15.7, 11.53 10.21, 19.46 2.14 M6.74 24.71 C9.84 18.25, 20.79 7.68, 24.23 1.21 M5.34 24.52 C12.51 14.67, 19.5 7.06, 23.63 2.52 M11.89 22.34 C15.24 14.91, 19.5 7.8, 24.44 0.68 M9.05 27.58 C14.59 20.4, 19.1 14.85, 29.81 3.03 M10.4 31.41 C18.29 22.21, 20.62 19.14, 35.92 9.11 M11.68 29.24 C17.23 23.42, 19.95 17.4, 30.71 6.4 M18.24 31.83 C18.06 27.39, 24.61 20, 39.52 3.9 M13.91 33.17 C18.73 25.02, 27.62 18.86, 37.97 6.31 M17.6 29.34 C27.9 24.92, 30.26 20.32, 37.5 13.56 M18.66 30.48 C24.53 28.62, 29.13 23.17, 36.95 8.93 M22.77 30.33 C24.71 25.56, 35.35 26.93, 41.94 16.42 M27.25 32.24 C27.61 28.61, 32.13 23.12, 41.35 13.29 M35.65 27.87 C36.66 23.84, 39.32 22.32, 40.84 17.65 M34.27 28.66 C35.52 26.71, 36.03 24.09, 41.25 20.11" stroke="#40c057" stroke-width="0.5" fill="none"></path><path d="M34.1 4.82 C37.49 6.9, 39.06 8.73, 39.85 12.1 C40.64 15.47, 41.35 21.86, 38.84 25.05 C36.33 28.23, 29.22 30.53, 24.8 31.18 C20.37 31.83, 15.75 30.25, 12.29 28.94 C8.82 27.63, 5.8 26.14, 4.01 23.31 C2.21 20.48, 0.72 15.52, 1.5 11.97 C2.28 8.41, 5.4 3.69, 8.67 1.98 C11.94 0.26, 16.35 0.59, 21.12 1.68 C25.89 2.77, 34.19 6.9, 37.3 8.51 C40.41 10.12, 40.05 11.14, 39.78 11.35 M8.76 0.15 C11.74 -1.69, 18.4 -0.56, 22.72 -0.15 C27.05 0.26, 31.6 -0.07, 34.7 2.6 C37.8 5.26, 41.44 12.41, 41.32 15.83 C41.21 19.24, 36.33 20.59, 34.02 23.07 C31.72 25.56, 31.81 29.42, 27.51 30.73 C23.21 32.03, 12.63 32.14, 8.22 30.89 C3.82 29.64, 1.81 26.5, 1.09 23.23 C0.37 19.96, 2.98 14.6, 3.91 11.27 C4.84 7.95, 5.42 4.67, 6.67 3.31 C7.91 1.94, 10.22 3.17, 11.38 3.11" stroke="#000000" stroke-width="1" fill="none"></path></g><g stroke-linecap="round" transform="translate(1392.736649151108 10.158000248105964) rotate(0 669.3371219866403 462.54268276682166)"><path d="M1.19 -1.42 C285.48 5.84, 574.68 5.34, 1337.47 1.06 M-0.08 -0.39 C472.99 -3.77, 944.98 -4.08, 1338.92 -0.48 M1339.38 0.02 C1344.42 266.01, 1345.87 531.85, 1339.66 924.9 M1338.59 -0.23 C1332.54 251.39, 1333.44 501.83, 1338.12 925.87 M1338.47 926.08 C941.69 931.06, 540.04 931.28, 0.83 925.35 M1339.44 925.71 C805.6 926.33, 271.85 925.89, -0.39 925.59 M0.59 924.1 C-0.86 677.65, -1.03 427.19, -0.46 1.54 M0.8 924.49 C6.97 555.91, 6.32 187.36, -0.61 -0.71" stroke="#000000" stroke-width="1" fill="none"></path></g><g stroke-linecap="round" transform="translate(1650.8204255987512 28.923563649135986) rotate(0 524.0906265329018 28.528977836934132)"><path d="M14.26 0 M14.26 0 C337.68 -7.67, 663.83 -5.55, 1033.92 0 M14.26 0 C282.43 -6.03, 550.05 -5.47, 1033.92 0 M1033.92 0 C1041.47 3.49, 1049.42 6.75, 1048.18 14.26 M1033.92 0 C1043.07 1.42, 1045.43 4.2, 1048.18 14.26 M1048.18 14.26 C1048.07 24.18, 1047.12 38.75, 1048.18 42.79 M1048.18 14.26 C1047.96 19.76, 1048.18 28, 1048.18 42.79 M1048.18 42.79 C1047.05 48.87, 1044.19 58.1, 1033.92 57.06 M1048.18 42.79 C1044.51 49.09, 1047.91 56.95, 1033.92 57.06 M1033.92 57.06 C816.06 57.57, 596.5 54.45, 14.26 57.06 M1033.92 57.06 C696.39 58.22, 357.36 59.17, 14.26 57.06 M14.26 57.06 C7.86 57.96, 1.61 50.7, 0 42.79 M14.26 57.06 C4.03 54.81, 2.89 50.86, 0 42.79 M0 42.79 C-2.46 33.12, 2.61 23.94, 0 14.26 M0 42.79 C2.14 34.05, -1.66 30.98, 0 14.26 M0 14.26 C-2.97 5.62, 2.87 -2.41, 14.26 0 M0 14.26 C-0.79 1.26, 0.67 -2.98, 14.26 0" stroke="#000000" stroke-width="1" fill="none"></path></g><g transform="translate(1714.0719780154568 33.01985205315691) rotate(0 170 22)"><text x="0" y="35" font-family="Cascadia, Segoe UI Emoji" font-size="36px" fill="#000000" text-anchor="start" style="white-space: pre;" direction="ltr">my-panel-app.org</text></g><g stroke-linecap="round" transform="translate(1437.562620804218 128.47195807547428) rotate(0 627.2642706040629 68.04087304839777)"><path d="M-0.1 0.54 C469.4 8.73, 941.05 10.78, 1253.23 0.6 M1255.77 1.99 C1252.88 40.65, 1250.8 78.35, 1257.85 134.85 M1254.17 137.14 C821.83 134.53, 390.73 133.09, -1.18 135.8 M0.77 137.12 C-2.42 93.85, 4.67 57.1, -3.41 2.12" stroke="#000000" stroke-width="2.5" fill="none" stroke-dasharray="8 10"></path></g><g transform="translate(1469.604361980868 173.6100635594164) rotate(0 338.5 22)"><text x="0" y="35" font-family="Cascadia, Segoe UI Emoji" font-size="36px" fill="#000000" text-anchor="start" style="white-space: pre;" direction="ltr">Row(sizing_mode='stretch_width')</text></g><g stroke-linecap="round" transform="translate(2789.8659593619877 113.68363210127313) rotate(0 650.1502757522669 403.57786795255714)"><path d="M-0.77 -0.99 C443.09 -9.35, 888.37 -7.55, 1299.81 -0.15 M0.46 -0.64 C422.54 2.96, 846.64 2.57, 1301.03 -0.66 M1301.86 -1.53 C1296.78 211.81, 1298.01 421.8, 1300.28 808.59 M1300.49 0.54 C1297.74 257.84, 1298.49 514.99, 1300.12 807.1 M1299.33 807.75 C798.81 803.69, 300.83 803.19, 1.4 808.74 M1300.74 806.58 C828.74 817.61, 358.18 816.86, -0.06 807.66 M0.53 805.57 C-1.37 577.92, -0.19 349.99, -0.43 0.77 M-0.02 807.62 C3.96 488.27, 4.15 167.61, -0.14 -0.49" stroke="#000000" stroke-width="1" fill="none"></path></g><g stroke-linecap="round" transform="translate(2810.353608730895 47.11355350612689) rotate(0 20.380480928846055 15.565292053000803)"><path d="M4.07 7.51 C4.07 7.51, 4.07 7.51, 4.07 7.51 M4.07 7.51 C4.07 7.51, 4.07 7.51, 4.07 7.51 M-0.97 15.38 C5.67 8.54, 15.15 7.29, 14.69 0.45 M2.96 18.9 C3.59 14.84, 6.02 10.87, 13.52 0.84 M1.25 20.99 C5.41 19.32, 7.45 12.6, 17.46 4.62 M3.32 19.52 C10.47 13.04, 16.09 7.54, 18.51 1.55 M4.93 23.63 C11.42 20.86, 19.88 11.11, 22.05 -0.29 M6.04 21.53 C12.09 17.04, 18.31 10.18, 25.25 3.39 M8.25 27.81 C19.58 19.35, 24.77 9.56, 27.12 -0.32 M9.5 27.94 C17.36 19.92, 20.44 9.78, 29.19 4.86 M10.54 28.61 C22.35 20.22, 24.89 12.36, 31.05 3.12 M11.8 27.45 C18.18 22.53, 25.83 13.94, 32.32 3.93 M19.6 29.53 C19.5 26.13, 32.05 18.44, 37.81 3.51 M16.26 29.96 C21.4 24.6, 24.79 20.26, 35.27 6 M17.38 35.62 C28.21 23.37, 36.81 17.34, 34.72 10.88 M19.43 33.55 C24.34 25.54, 28.5 19.6, 37.27 11.43 M27.24 34.81 C32.98 23.99, 35.5 18.68, 36.33 16.41 M24.54 31.51 C29.47 28.66, 34.67 22.1, 38.36 13.75" stroke="#fa5252" stroke-width="0.5" fill="none"></path><path d="M17.47 -0.33 C21.67 -1.37, 26.73 0.82, 30.08 2.46 C33.43 4.11, 35.77 6.75, 37.55 9.51 C39.34 12.27, 42.23 15.6, 40.8 19.03 C39.37 22.46, 32.9 28.06, 28.98 30.08 C25.06 32.1, 20.99 32.12, 17.3 31.13 C13.6 30.14, 9.83 26.78, 6.81 24.12 C3.8 21.47, -0.3 17.92, -0.79 15.19 C-1.27 12.45, 0.64 10.55, 3.89 7.72 C7.14 4.89, 14.95 -0.57, 18.73 -1.79 C22.51 -3, 26 -0.14, 26.57 0.42 M37.37 6.56 C40.41 8.73, 42.71 10.57, 42.79 13.93 C42.86 17.28, 40.75 23.94, 37.8 26.67 C34.85 29.39, 29.78 29.5, 25.08 30.29 C20.38 31.08, 13.88 33.21, 9.58 31.41 C5.28 29.61, 0.96 22.9, -0.71 19.5 C-2.38 16.1, -1.99 13.89, -0.44 11.03 C1.12 8.16, 4.05 4.19, 8.63 2.31 C13.2 0.43, 21.96 -1.32, 27.01 -0.24 C32.05 0.85, 37.1 7.4, 38.91 8.81 C40.71 10.22, 38.07 8.29, 37.83 8.23" stroke="#000000" stroke-width="1" fill="none"></path></g><g stroke-linecap="round" transform="translate(2878.516432073155 47.11355350612689) rotate(0 20.380480928846055 15.565292053000803)"><path d="M7.73 2.74 C7.73 2.74, 7.73 2.74, 7.73 2.74 M7.73 2.74 C7.73 2.74, 7.73 2.74, 7.73 2.74 M3.68 11.64 C4.98 12.64, 10.48 7.04, 14.21 -1.91 M6.32 11.84 C8.8 7.82, 11.36 3.86, 14.5 -0.12 M1.98 20.18 C10.11 12.3, 13.31 7.5, 25.48 1.43 M0.51 23.27 C9.14 13.71, 18.64 2.98, 22.4 -1.87 M5.67 23.78 C15.33 19.94, 17.9 7.74, 23.12 0.62 M3.57 23.83 C10.03 19.33, 14.15 14.76, 26.8 1.6 M9.49 30.47 C17.79 18.83, 24.79 6.46, 25 4.14 M9.62 28.43 C14.68 18.57, 17.55 14.88, 30.18 3.53 M11.45 32.04 C16.62 21.36, 22.41 14.81, 31 3.53 M10.28 29 C16.24 26.12, 18.52 18.77, 31.81 5.19 M14.07 27.41 C23.33 27.14, 28.34 20.68, 31.78 3.75 M14.5 32.11 C20.84 23.36, 28.17 14.43, 34.28 9.06 M23.28 32.16 C24.29 28.09, 31.53 16.81, 38.14 9.14 M21.21 30.8 C23.76 24.41, 28.38 18.88, 38.69 11.02 M27.2 35.51 C28.34 25.57, 35.07 13.37, 42.56 13.91 M23.89 31.76 C31.48 26.57, 35.37 19.12, 39.89 13.14 M31.46 36.44 C33.54 32.63, 34.55 30.28, 38.27 16.39 M27.8 33.9 C34.66 28.05, 38.34 23.6, 39.28 19.91" stroke="#fab005" stroke-width="0.5" fill="none"></path><path d="M7.6 2.89 C10.54 0.37, 17.71 -2.25, 22.09 -1.83 C26.47 -1.41, 31.07 3.11, 33.9 5.4 C36.72 7.68, 38.24 8.74, 39.02 11.87 C39.8 15.01, 40.67 20.83, 38.57 24.24 C36.47 27.64, 31.06 31.49, 26.4 32.3 C21.75 33.1, 14.8 30.8, 10.65 29.06 C6.5 27.33, 2.87 25.06, 1.52 21.89 C0.16 18.72, 0.69 13.27, 2.51 10.06 C4.32 6.85, 9.41 4, 12.42 2.62 C15.44 1.25, 20.22 1.6, 20.61 1.83 M24.91 2.3 C28.86 2.87, 31.39 5.31, 34.17 7.82 C36.95 10.34, 41.42 14.43, 41.59 17.38 C41.75 20.33, 37.72 23.55, 35.16 25.51 C32.6 27.47, 30.58 28.87, 26.21 29.14 C21.83 29.41, 12.89 28.85, 8.9 27.12 C4.91 25.38, 3.45 21.14, 2.26 18.74 C1.06 16.33, 0.45 15.04, 1.72 12.69 C2.99 10.34, 5.64 6.37, 9.88 4.61 C14.12 2.85, 24.42 2.34, 27.16 2.14 C29.89 1.93, 26.59 3.8, 26.31 3.38" stroke="#000000" stroke-width="1" fill="none"></path></g><g stroke-linecap="round" transform="translate(2945.4191023788358 47.11355350612689) rotate(0 20.380480928846055 15.565292053000803)"><path d="M1.45 7.88 C1.45 7.88, 1.45 7.88, 1.45 7.88 M1.45 7.88 C1.45 7.88, 1.45 7.88, 1.45 7.88 M1.39 11.93 C7.79 11.03, 8.46 5.49, 7.99 4.01 M1.57 14.48 C4.45 10.03, 7.41 5.51, 9.54 3.2 M1.06 21.58 C3.87 14.75, 9.36 11.38, 16.81 8.03 M3.69 18.17 C5.78 16.71, 6.9 12.62, 14 5.56 M4.83 25.52 C12.65 16.66, 12.09 8.66, 25.51 -4.14 M4.88 22.38 C11.94 14.96, 18.93 8.42, 26.48 1 M10.61 27.58 C15.18 18.45, 19 6.31, 29.42 0.05 M8.57 26.85 C9.58 18.59, 16.79 15.98, 28.81 0.99 M11.92 29.74 C16.55 19.74, 25.28 7.38, 30.62 -0.13 M8.88 30.09 C17.85 20.38, 22.31 13.21, 32.28 2.49 M10.5 33.78 C23.44 25.23, 30.25 9.14, 31.23 7.36 M15.2 29.04 C19.38 23.8, 23.41 17, 36.54 5.51 M18.57 31.87 C27.53 25.37, 29.23 14.5, 36.91 6.91 M17.2 30.92 C22.45 23.52, 28.56 18.59, 38.8 9.98 M25.14 31.01 C29.52 23.07, 31.68 18.62, 40.11 13.03 M21.39 35.34 C27.31 28.17, 30.97 19.85, 39.34 11.29 M32.06 32.25 C35.06 26.52, 39.28 19.34, 37.75 19.43 M29.92 31.46 C31.44 28.39, 34.14 23.58, 40.72 19.18" stroke="#40c057" stroke-width="0.5" fill="none"></path><path d="M37.12 7.4 C39.18 9.95, 39.03 13.79, 38.79 16.75 C38.54 19.71, 38.81 22.6, 35.65 25.18 C32.5 27.77, 24.39 31.74, 19.86 32.27 C15.33 32.79, 11.38 30.76, 8.47 28.33 C5.56 25.89, 3.61 21.02, 2.41 17.64 C1.21 14.27, -0.22 10.45, 1.3 8.06 C2.81 5.67, 7.67 4.82, 11.48 3.28 C15.29 1.75, 19.17 -2.23, 24.14 -1.17 C29.1 -0.11, 38.34 7.26, 41.26 9.66 C44.18 12.05, 41.97 13.02, 41.64 13.22 M16.11 -1.23 C20.15 -2.38, 26.15 0.49, 30.13 1.96 C34.1 3.43, 38.32 4.37, 39.99 7.6 C41.65 10.83, 41.58 18.15, 40.1 21.35 C38.63 24.54, 34.85 24.96, 31.14 26.77 C27.43 28.59, 22.23 32.11, 17.84 32.24 C13.45 32.36, 7.28 30.03, 4.78 27.53 C2.28 25.02, 2.68 20.07, 2.84 17.19 C2.99 14.32, 3.54 12.66, 5.72 10.29 C7.91 7.92, 14.07 4.23, 15.95 2.97 C17.83 1.7, 17.58 3.21, 17.02 2.7" stroke="#000000" stroke-width="1" fill="none"></path></g><g stroke-linecap="round" transform="translate(2766.06717474154 15.384304321163427) rotate(0 669.3371219866401 462.54268276682166)"><path d="M1.57 0.78 C318.25 6.7, 637.89 5.36, 1338.29 0.92 M0.04 0.08 C294.84 -6.92, 587.91 -6.52, 1338.41 0.78 M1338.47 1.21 C1332.04 190.69, 1332.36 378.01, 1339.25 925.47 M1338.9 0.43 C1333.59 340.05, 1334.44 679.74, 1338.39 924.6 M1340.08 924.8 C888.74 928.08, 437 927.67, 1.5 925.96 M1338.42 925.06 C1032.95 935.34, 727.21 935.01, 0.06 925.35 M1.17 924.74 C-0.39 739.99, 1.57 552.23, 0.45 -0.03 M-0.43 924.78 C5.65 593.11, 6.56 262.51, -0.05 -0.13" stroke="#000000" stroke-width="1" fill="none"></path></g><g stroke-linecap="round" transform="translate(3024.150951189183 34.149867722193676) rotate(0 524.0906265329018 28.528977836934132)"><path d="M14.26 0 M14.26 0 C301.39 -8.49, 586.82 -7.58, 1033.92 0 M14.26 0 C224.8 -5.44, 437.1 -4.64, 1033.92 0 M1033.92 0 C1043.81 3.63, 1044.88 3.18, 1048.18 14.26 M1033.92 0 C1041.94 -1.51, 1052.67 0.37, 1048.18 14.26 M1048.18 14.26 C1051.75 20.23, 1052.3 27.03, 1048.18 42.79 M1048.18 14.26 C1049.74 20.6, 1049.79 30.14, 1048.18 42.79 M1048.18 42.79 C1050.33 51.42, 1043.14 60.45, 1033.92 57.06 M1048.18 42.79 C1045.44 50.68, 1040.62 58.77, 1033.92 57.06 M1033.92 57.06 C794.38 65.63, 557.01 65.22, 14.26 57.06 M1033.92 57.06 C652.55 60.89, 273.06 61.26, 14.26 57.06 M14.26 57.06 C4.62 56.74, 2.5 51.62, 0 42.79 M14.26 57.06 C5.73 57.43, 1.53 47.74, 0 42.79 M0 42.79 C-0.56 33.18, 2.21 29.54, 0 14.26 M0 42.79 C1.01 34.7, 1.68 28.65, 0 14.26 M0 14.26 C-1.55 4.06, 2.3 3.85, 14.26 0 M0 14.26 C2.27 4.44, 4.03 -4.22, 14.26 0" stroke="#000000" stroke-width="1" fill="none"></path></g><g transform="translate(3087.402503605889 38.2461561262146) rotate(0 170 22)"><text x="0" y="35" font-family="Cascadia, Segoe UI Emoji" font-size="36px" fill="#000000" text-anchor="start" style="white-space: pre;" direction="ltr">my-panel-app.org</text></g><g stroke-linecap="round" transform="translate(2810.89314639465 133.69826214853197) rotate(0 377.0881082941321 382.4472079432838)"><path d="M-0.15 0.41 C298.66 1.48, 601.22 0.58, 752.66 0.94 M752.86 -0.63 C754.24 233.13, 756.32 465.78, 752.75 766.41 M755.61 765.19 C536.93 765.4, 321.09 765.91, -1.06 766.02 M-0.11 766.25 C-4.24 513.7, -4.26 264.24, -1.05 0.21" stroke="#000000" stroke-width="2.5" fill="none" stroke-dasharray="8 10"></path></g><g transform="translate(2839.9326627029022 178.8363676324741) rotate(0 348.9999999999998 22)"><text x="0" y="35" font-family="Cascadia, Segoe UI Emoji" font-size="36px" fill="#000000" text-anchor="start" style="white-space: pre;" direction="ltr">Row(sizing_mode='stretch_height')</text></g></svg>
