<svg xmlns="http://www.w3.org/2000/svg" xmlns:xlink="http://www.w3.org/1999/xlink" width="158.29" height="49.679" viewBox="0 0 158.29 49.679">
  <defs>
    <clipPath id="clip-path">
      <rect id="Rectangle_2063" data-name="Rectangle 2063" width="158.29" height="49.679" fill="none"/>
    </clipPath>
  </defs>
  <g id="Group_2690" data-name="Group 2690" transform="translate(0 0)">
    <g id="Group_2631" data-name="Group 2631" transform="translate(0 0)" clip-path="url(#clip-path)">
      <path id="Path_8099" data-name="Path 8099" d="M9.195,14.642,22.306,7.077a.419.419,0,0,0,.209-.362l0-4.537A2.171,2.171,0,0,0,21.7.436,2.071,2.071,0,0,0,19.391.282L1.05,10.865a2.085,2.085,0,0,0-1.042,1.8L0,36.57a2.174,2.174,0,0,0,.81,1.742,2.072,2.072,0,0,0,2.317.155l3.884-2.241a.421.421,0,0,0,.209-.362l.005-17.812a3.936,3.936,0,0,1,1.969-3.409" transform="translate(0 0)" fill="#ffc11e"/>
      <path id="Path_8100" data-name="Path 8100" d="M44.355,13.343a2.065,2.065,0,0,0-2.085,0L23.93,23.925a2.089,2.089,0,0,0-1.043,1.8L22.88,49.721a2.085,2.085,0,0,0,3.126,1.806L44.346,40.944a2.087,2.087,0,0,0,1.043-1.8L45.4,15.148a2.063,2.063,0,0,0-1.042-1.805" transform="translate(-3.731 -2.13)" fill="#ef1161"/>
      <path id="Path_8101" data-name="Path 8101" d="M21.04,21.239l12.1-6.983a.419.419,0,0,0,.209-.362l0-5.284a2.172,2.172,0,0,0-.812-1.742,2.071,2.071,0,0,0-2.314-.153l-5.021,2.9L11.888,17.3a2.085,2.085,0,0,0-1.043,1.8L10.84,37.154l0,5.847a2.174,2.174,0,0,0,.81,1.742,2.07,2.07,0,0,0,2.316.154l4.893-2.823a.417.417,0,0,0,.209-.362l.005-17.064a3.936,3.936,0,0,1,1.969-3.409" transform="translate(-1.767 -1.049)" fill="#fc6e6b"/>
      <path id="Path_8102" data-name="Path 8102" d="M66.062,30.165V22.9c0-6.231,3.679-10.5,9.224-10.5a8.682,8.682,0,0,1,7.7,3.975V3.23a.592.592,0,0,1,.639-.639h4.809a.618.618,0,0,1,.637.639V39.341a.608.608,0,0,1-.687.638H83.823a.593.593,0,0,1-.639-.638V36.593a8.824,8.824,0,0,1-7.654,3.925c-5.839,0-9.469-4.122-9.469-10.353m16.926-.883v-5.5c0-3.826-2.5-6.034-5.592-6.034-3.435,0-5.25,2.256-5.25,6.034v5.5c0,3.827,1.815,5.888,5.25,5.888,3.092,0,5.592-2.061,5.592-5.888" transform="translate(-10.773 -0.422)" fill="currentColor"/>
      <path id="Path_8103" data-name="Path 8103" d="M121.084,23.188V41.195a.621.621,0,0,1-.688.687h-4.318a.621.621,0,0,1-.686-.687V38.006a8.962,8.962,0,0,1-7.753,4.416c-5.1,0-8.341-3.337-8.341-8.194,0-4.907,3.239-7.753,10.3-8.243a41.982,41.982,0,0,1,5.545-.049v-2.5c0-3.042-1.668-4.269-4.465-4.269s-3.827,1.03-4.514,2.944c-.2.539-.392.638-.932.49l-4.268-1.08c-.443-.147-.589-.393-.443-.785.786-3.827,4.269-6.476,10.4-6.476,6.33,0,10.157,2.993,10.157,8.929m-5.937,9.96V29.813a43.13,43.13,0,0,0-5.053.1c-3.19.343-5.006,1.423-5.006,3.974,0,2.209,1.522,3.631,4.122,3.631a6.251,6.251,0,0,0,5.937-4.366" transform="translate(-16.192 -2.325)" fill="currentColor"/>
      <path id="Path_8104" data-name="Path 8104" d="M151.784,20.636a.659.659,0,0,1-.49.932l-3.582,1.275c-.54.147-.785,0-.932-.49-.786-2.208-2.552-3.287-5.2-3.287-2.748,0-4.367,1.128-4.367,2.895,0,1.668,1.128,2.355,6.329,3.826,6.133,1.718,8.586,4.122,8.586,8.39,0,5-4.121,8.292-10.45,8.292-5.692,0-9.814-2.355-11.089-6.378-.2-.54,0-.834.588-1.08l3.189-1.57c.589-.2.884-.1,1.08.588.735,2.257,3.041,3.631,6.033,3.631,3.042,0,4.81-1.178,4.81-3.092,0-1.766-1.472-2.7-6.576-4.121-5.887-1.669-8.341-3.975-8.341-8.1,0-4.858,3.975-8.1,10.009-8.1,5.3,0,9.127,2.355,10.4,6.378" transform="translate(-21.283 -2.325)" fill="currentColor"/>
      <path id="Path_8105" data-name="Path 8105" d="M184.132,39.97H178.98a.857.857,0,0,1-.883-.589L171.964,28.1l-3.681,4.318v6.869a.62.62,0,0,1-.686.687h-4.71a.621.621,0,0,1-.686-.687V3.22a.643.643,0,0,1,.686-.686h4.71a.643.643,0,0,1,.686.686V24.956l9.225-11.383a1.652,1.652,0,0,1,1.374-.687h4.955a.552.552,0,0,1,.443.932l-8.244,9.568,8.587,15.651a.574.574,0,0,1-.49.932" transform="translate(-26.45 -0.413)" fill="currentColor"/>
    </g>
  </g>
</svg>
