<?xml version="1.0" encoding="UTF-8" standalone="no"?>
<!-- Created with Inkscape (http://www.inkscape.org/) -->

<svg
   xmlns:dc="http://purl.org/dc/elements/1.1/"
   xmlns:cc="http://creativecommons.org/ns#"
   xmlns:rdf="http://www.w3.org/1999/02/22-rdf-syntax-ns#"
   xmlns:svg="http://www.w3.org/2000/svg"
   xmlns="http://www.w3.org/2000/svg"
   xmlns:sodipodi="http://sodipodi.sourceforge.net/DTD/sodipodi-0.dtd"
   xmlns:inkscape="http://www.inkscape.org/namespaces/inkscape"
   width="134.19864mm"
   height="63.912483mm"
   viewBox="0 0 475.50699 226.46155"
   id="svg6730"
   version="1.1"
   inkscape:version="0.91 r13725"
   sodipodi:docname="logo.svg">
  <defs
     id="defs6732" />
  <sodipodi:namedview
     id="base"
     pagecolor="#ffffff"
     bordercolor="#666666"
     borderopacity="1.0"
     inkscape:pageopacity="0.0"
     inkscape:pageshadow="2"
     inkscape:zoom="0.35"
     inkscape:cx="-215.81793"
     inkscape:cy="-109.62636"
     inkscape:document-units="px"
     inkscape:current-layer="layer1"
     showgrid="false"
     fit-margin-top="0"
     fit-margin-left="0"
     fit-margin-right="0"
     fit-margin-bottom="0"
     inkscape:window-width="1680"
     inkscape:window-height="1028"
     inkscape:window-x="0"
     inkscape:window-y="0"
     inkscape:window-maximized="1" />
  <metadata
     id="metadata6735">
    <rdf:RDF>
      <cc:Work
         rdf:about="">
        <dc:format>image/svg+xml</dc:format>
        <dc:type
           rdf:resource="http://purl.org/dc/dcmitype/StillImage" />
        <dc:title></dc:title>
      </cc:Work>
    </rdf:RDF>
  </metadata>
  <g
     inkscape:label="Layer 1"
     inkscape:groupmode="layer"
     id="layer1"
     transform="translate(-96.53222,-196.27429)">
    <g
       id="g5614"
       transform="matrix(2,0,0,2,2854.4143,-2081.2586)"
       inkscape:export-xdpi="72"
       inkscape:export-ydpi="72">
      <rect
         inkscape:export-ydpi="144"
         inkscape:export-xdpi="144"
         y="1138.7665"
         x="-1378.941"
         height="113.23074"
         width="113.11668"
         id="rect4136-8-8-1"
         style="opacity:1;fill:#00aa44;fill-opacity:1;stroke:none;stroke-width:4;stroke-miterlimit:1;stroke-dasharray:none" />
      <g
         id="g5603">
        <g
           id="g5591">
          <rect
             inkscape:export-ydpi="144"
             inkscape:export-xdpi="144"
             y="1165.5731"
             x="-1361.4104"
             height="8"
             width="78.055412"
             id="rect4327-3-71"
             style="opacity:1;fill:#eeeeee;fill-opacity:1;stroke:none;stroke-width:4;stroke-miterlimit:1;stroke-dasharray:none" />
          <circle
             r="9"
             inkscape:export-ydpi="144"
             inkscape:export-xdpi="144"
             cy="1169.5731"
             cx="-1341.4192"
             id="path4355-79-2"
             style="opacity:1;fill:#eeeeee;fill-opacity:1;stroke:none;stroke-width:4;stroke-miterlimit:1;stroke-dasharray:none" />
        </g>
        <g
           id="g5595">
          <rect
             inkscape:export-ydpi="144"
             inkscape:export-xdpi="144"
             y="1191.3817"
             x="-1361.4104"
             height="8"
             width="78.055412"
             id="rect4327-5-1-0"
             style="opacity:1;fill:#eeeeee;fill-opacity:1;stroke:none;stroke-width:4;stroke-miterlimit:1;stroke-dasharray:none" />
          <circle
             r="9"
             inkscape:export-ydpi="144"
             inkscape:export-xdpi="144"
             cy="1195.3817"
             cx="-1305.4111"
             id="path4355-7-3-7"
             style="opacity:1;fill:#eeeeee;fill-opacity:1;stroke:none;stroke-width:4;stroke-miterlimit:1;stroke-dasharray:none" />
        </g>
        <g
           id="g5599">
          <rect
             inkscape:export-ydpi="144"
             inkscape:export-xdpi="144"
             y="1217.1904"
             x="-1361.4104"
             height="8"
             width="78.055412"
             id="rect4327-54-6-2"
             style="opacity:1;fill:#eeeeee;fill-opacity:1;stroke:none;stroke-width:1;stroke-miterlimit:4;stroke-dasharray:none" />
          <circle
             r="9"
             inkscape:export-ydpi="144"
             inkscape:export-xdpi="144"
             cy="1221.1904"
             cx="-1341.4274"
             id="path4355-3-9-8"
             style="opacity:1;fill:#eeeeee;fill-opacity:1;stroke:none;stroke-width:4;stroke-miterlimit:1;stroke-dasharray:none" />
        </g>
      </g>
    </g>
    <rect
       style="opacity:1;fill:#00aa44;fill-opacity:1;stroke:none;stroke-width:4;stroke-miterlimit:1;stroke-dasharray:none"
       id="rect4136-8-3-0-1"
       width="226.23335"
       height="226.46149"
       x="345.80588"
       y="-422.73578"
       transform="scale(1,-1)"
       inkscape:export-xdpi="72"
       inkscape:export-ydpi="72" />
    <path
       style="fill-opacity:1;stroke:#eeeeee;stroke-width:11;stroke-linejoin:round;stroke-miterlimit:0;stroke-dasharray:none"
       d="m 393.40446,387.6816 -1.5928,-7.8554 -3.2766,0 c -2.502,0 -3.7198,-0.4408 -5.1546,-1.8664 l -1.8786,-1.8664 -1.6408,1.9556 c -0.9028,1.0752 -1.8072,1.7252 -2.0096,1.444 -0.8284,-1.15 -7.8462,-31.3496 -7.8462,-33.7652 0,-2.814 1.7062,2.9396 4.2406,14.3008 1.519,6.8084 3.0924,13.3394 3.497,14.5136 l 0.7354,2.135 1.56,-1.5802 c 1.4462,-1.465 1.683,-1.481 3.2436,-0.2186 0.9262,0.7492 3.3984,1.6176 5.4934,1.9304 l 3.81,0.569 1.5082,7.3338 c 0.83,4.0334 1.6426,7.334 1.8066,7.334 0.164,0 0.8564,-1.2158 1.539,-2.7012 1.2312,-2.6806 1.2572,-2.6934 3.3234,-1.6546 4.2462,2.134 6.8852,-2.1402 10.2804,-16.6524 0.8678,-3.7094 1.6594,-6.047 2.047,-6.0444 0.3476,0 1.244,2.1606 1.992,4.796 0.7478,2.6352 1.4508,4.7934 1.562,4.796 0.112,0 0.9322,-2.6466 1.8242,-5.887 0.8922,-3.2406 2.4332,-7.6592 3.4244,-9.819 l 1.8026,-3.9278 1.4798,3.8246 c 1.263,3.2642 1.51,3.5836 1.6876,2.1818 0.116,-0.9034 0.8762,-11.5596 1.6938,-23.6804 1.6498,-24.463 1.6058,-24.2532 4.1718,-19.857 1.558,2.669 2.8706,2.6834 4.3966,0.048 0.046,-0.084 0.8658,-5.8234 1.8172,-12.756 0.9514,-6.9328 2.507,-16.8924 3.4568,-22.1328 1.6534,-9.1202 1.8032,-9.615 3.4952,-11.5464 1.8996,-2.1678 2.0798,-2.9186 4.1596,-17.3292 1.1142,-7.717 1.3302,-8.2916 3.1174,-8.2916 l 1.4664,0 1.5948,-10.0938 c 0.8772,-5.5514 1.5948,-10.4612 1.5948,-10.9098 0,-0.4492 0.328,-0.8166 0.7288,-0.8166 0.6196,0 0.9448,2.0298 2.1672,13.5286 0.791,7.4406 1.556,13.5264 1.6998,13.524 0.142,0 0.8158,-2.7518 1.4932,-6.1096 0.6774,-3.3578 1.4756,-6.105 1.7738,-6.105 0.3614,0 1.0878,4.1406 2.1814,12.4374 0.9016,6.8406 2.45,18.196 3.4412,25.2342 1.7638,12.5266 1.8272,12.8052 2.9986,13.2064 0.6582,0.2254 1.3462,0.212 1.5288,-0.03 0.182,-0.2418 1.0152,-3.7334 1.851,-7.7584 1.3456,-6.4806 1.7304,-7.584 3.3598,-9.64 1.0126,-1.276 2.5918,-4.415 3.5102,-6.9752 0.9186,-2.5596 1.8828,-4.6542 2.1434,-4.6542 0.4816,0 3.2134,9.3748 6.0136,20.6358 1.4396,5.7892 1.6724,7.7526 3.2614,27.4934 l 1.7114,21.2592 1.3438,1.5264 c 0.7386,0.8392 2.1484,1.5264 3.1322,1.527 l 1.7892,0 1.676,-8.3324 c 1.3364,-6.6436 2.0484,-9.0324 3.511,-11.7832 1.0092,-1.8976 1.941,-3.4502 2.0714,-3.4502 0.128,0 1.2638,1.6994 2.5202,3.7762 3.4598,5.7212 4.3112,6.3142 6.1276,4.2666 0.8248,-0.93 1.7244,-1.5114 1.999,-1.2924 0.2746,0.219 1.1268,3.1948 1.893,6.6136 l 1.3936,6.2158 1.4406,-9.1946 c 0.792,-5.0568 1.5572,-9.6192 1.7002,-10.1382 0.142,-0.5194 1.1294,-1.413 2.1918,-1.9856 l 1.9322,-1.0408 1.8048,3.322 c 2.4582,4.524 5.148,13.7632 7.2974,25.063 1.7084,8.984 3.8948,17.1618 4.5884,17.1618 0.176,0 0.3226,0.7854 0.3226,1.7456 0,0.9598 -0.164,1.7454 -0.3658,1.7454 -0.8328,0 -3.9252,-10.6562 -5.4498,-18.78 -1.989,-10.5968 -4.9452,-21.0326 -7.0188,-24.7752 -1.4506,-2.6184 -1.6234,-2.7194 -3.0326,-1.7716 -1.4134,0.9512 -1.542,1.342 -2.3816,7.2378 -1.6164,11.3462 -2.3932,15.396 -2.953,15.396 -0.3028,0 -1.2616,-3.1756 -2.1308,-7.0574 -1.2722,-5.685 -1.7078,-6.9376 -2.2386,-6.4386 -2.6506,2.4894 -2.7108,2.501 -4.365,0.8256 -0.8978,-0.9094 -2.3544,-2.9436 -3.2374,-4.5202 -0.883,-1.577 -1.78,-2.869 -1.9938,-2.8712 -1.1004,-0.02 -3.2456,6.273 -4.8372,14.1708 l -1.7148,8.5094 -2.2294,0 c -2.831,0 -5.6864,-2.5914 -5.964,-5.412 -0.108,-1.1038 -0.9172,-11.0404 -1.7972,-22.0814 -1.7314,-21.719 -1.6584,-21.2674 -5.9564,-36.8748 -1.0902,-3.9596 -2.0778,-7.1998 -2.194,-7.2006 -0.118,-8e-4 -0.8574,1.9002 -1.6466,4.2248 -0.8496,2.5022 -2.085,4.885 -3.028,5.8404 -1.4204,1.438 -1.8026,2.5518 -3.526,10.2658 l -1.9334,8.6524 -1.8218,-0.595 c -1.0022,-0.3274 -2.026,-1.056 -2.2758,-1.6188 -0.3814,-0.8594 -5.3654,-36.0386 -6.1734,-43.5726 -0.14,-1.3204 -0.4232,-2.4004 -0.6258,-2.4004 -0.2042,0 -0.9126,2.7654 -1.577,6.1458 -1.7632,8.9638 -2.1392,8.2502 -3.7898,-7.1906 -0.753,-7.0464 -1.4824,-13.0576 -1.6206,-13.3578 -0.136,-0.2998 -0.7266,2.7194 -1.3074,6.7102 -1.4726,10.117 -1.8224,11.1838 -3.6694,11.1838 l -1.5186,0 -1.678,11.4922 -1.6786,11.4928 -1.811,1.8178 c -1.7896,1.7966 -1.8314,1.9344 -3.585,11.855 -0.9756,5.5208 -2.4958,15.3396 -3.3782,21.8204 -0.8824,6.4806 -1.7722,12.2452 -1.9766,12.8102 -0.2042,0.565 -1.1318,1.6088 -2.06,2.3194 -1.626,1.2438 -1.7396,1.2116 -3.1148,-0.8872 -0.7848,-1.1978 -1.5098,-1.9932 -1.6104,-1.7668 -0.1,0.226 -0.911,10.91 -1.8004,23.7416 -1.1486,16.5682 -1.7748,23.4656 -2.1604,23.7982 -0.317,0.273 -0.9704,-0.7466 -1.5696,-2.4464 -0.5644,-1.603 -1.2466,-3.5268 -1.5158,-4.2756 -0.4282,-1.1912 -0.6812,-0.888 -2.0272,2.428 -0.8456,2.084 -2.2834,6.5024 -3.1944,9.819 -0.9654,3.513 -1.924,6.03 -2.297,6.03 -0.36,0 -1.2072,-2.1006 -1.9358,-4.8004 -0.7122,-2.6404 -1.3894,-4.797 -1.5048,-4.793 -0.116,0 -0.8212,2.5974 -1.5692,5.7632 -0.748,3.166 -2.3218,8.043 -3.4974,10.8378 -1.8264,4.343 -2.3968,5.166 -3.9222,5.662 -0.9818,0.3192 -2.451,0.168 -3.2646,-0.3378 -1.2544,-0.7778 -1.6376,-0.6636 -2.5238,0.7536 -0.5746,0.919 -1.2692,2.2784 -1.5434,3.0208 -1.076,2.9116 -1.796,1.5452 -3.4286,-6.5052 z"
       id="path4800-0"
       inkscape:connector-curvature="0"
       inkscape:export-xdpi="72"
       inkscape:export-ydpi="72" />
  </g>
</svg>
